<mxfile host="app.diagrams.net" modified="2021-03-19T11:45:31.937Z" agent="5.0 (X11; Linux x86_64) AppleWebKit/537.36 (KHTML, like Gecko) Chrome/89.0.4389.72 Safari/537.36" etag="0xb0heAj8W-yxxvrkkOP" version="14.4.9" type="github">
  <diagram name="Page-1" id="58cdce13-f638-feb5-8d6f-7d28b1aa9fa0">
    <mxGraphModel dx="734" dy="458" grid="1" gridSize="10" guides="1" tooltips="1" connect="1" arrows="1" fold="1" page="1" pageScale="1" pageWidth="1100" pageHeight="850" background="#ffffff" math="0" shadow="0">
      <root>
        <mxCell id="0" />
        <mxCell id="1" parent="0" />
        <mxCell id="382b91b5511bd0f7-1" value="" style="ellipse;html=1;shape=startState;fillColor=#000000;rounded=1;shadow=0;comic=0;labelBackgroundColor=none;fontFamily=Verdana;fontSize=12;fontColor=#000000;align=center;direction=south;" parent="1" vertex="1">
          <mxGeometry x="405" y="30" width="30" height="30" as="geometry" />
        </mxCell>
        <mxCell id="382b91b5511bd0f7-5" value="elevatorGoingUp" style="rounded=1;whiteSpace=wrap;html=1;arcSize=24;shadow=0;comic=0;labelBackgroundColor=none;fontFamily=Verdana;fontSize=12;fontColor=#000000;align=center;fillColor=#FFFFFF;" parent="1" vertex="1">
          <mxGeometry x="150" y="310" width="120" height="60" as="geometry" />
        </mxCell>
        <mxCell id="382b91b5511bd0f7-6" value="elevatorInit" style="rounded=1;whiteSpace=wrap;html=1;arcSize=24;shadow=0;comic=0;labelBackgroundColor=none;fontFamily=Verdana;fontSize=12;fontColor=#000000;align=center;fillColor=#FFFFFF;" parent="1" vertex="1">
          <mxGeometry x="360" y="120" width="120" height="60" as="geometry" />
        </mxCell>
        <mxCell id="382b91b5511bd0f7-7" value="elevatorStandStill" style="rounded=1;whiteSpace=wrap;html=1;arcSize=24;shadow=0;comic=0;labelBackgroundColor=none;fontFamily=Verdana;fontSize=12;fontColor=#000000;align=center;fillColor=#FFFFFF;" parent="1" vertex="1">
          <mxGeometry x="360" y="240" width="120" height="60" as="geometry" />
        </mxCell>
        <mxCell id="382b91b5511bd0f7-9" value="elevatorEmergency" style="rounded=1;whiteSpace=wrap;html=1;arcSize=24;shadow=0;comic=0;labelBackgroundColor=none;fontFamily=Verdana;fontSize=12;fontColor=#000000;align=center;fillColor=#FFFFFF;" parent="1" vertex="1">
          <mxGeometry x="590" y="420" width="120" height="60" as="geometry" />
        </mxCell>
        <mxCell id="382b91b5511bd0f7-10" value="elevatorGoingDown" style="rounded=1;whiteSpace=wrap;html=1;arcSize=24;shadow=0;comic=0;labelBackgroundColor=none;fontFamily=Verdana;fontSize=12;fontColor=#000000;align=center;fillColor=#FFFFFF;" parent="1" vertex="1">
          <mxGeometry x="590" y="310" width="120" height="60" as="geometry" />
        </mxCell>
        <mxCell id="2a3bc250acf0617d-9" value="" style="edgeStyle=orthogonalEdgeStyle;html=1;labelBackgroundColor=none;endArrow=open;endSize=8;fontFamily=Verdana;fontSize=12;align=left;" parent="1" source="382b91b5511bd0f7-1" target="382b91b5511bd0f7-6" edge="1">
          <mxGeometry y="-10" relative="1" as="geometry">
            <Array as="points">
              <mxPoint x="420" y="80" />
              <mxPoint x="420" y="80" />
            </Array>
            <mxPoint as="offset" />
          </mxGeometry>
        </mxCell>
        <mxCell id="1HETc7zzV47s04hjz0ba-35" value="STARTUP" style="edgeLabel;html=1;align=center;verticalAlign=middle;resizable=0;points=[];fontColor=#FF3333;" vertex="1" connectable="0" parent="2a3bc250acf0617d-9">
          <mxGeometry x="0.2333" relative="1" as="geometry">
            <mxPoint y="-19" as="offset" />
          </mxGeometry>
        </mxCell>
        <mxCell id="1HETc7zzV47s04hjz0ba-4" value="" style="endArrow=classic;html=1;strokeColor=#000000;exitX=0.5;exitY=1;exitDx=0;exitDy=0;entryX=0.5;entryY=0;entryDx=0;entryDy=0;" edge="1" parent="1" source="382b91b5511bd0f7-6" target="382b91b5511bd0f7-7">
          <mxGeometry width="50" height="50" relative="1" as="geometry">
            <mxPoint x="450" y="510" as="sourcePoint" />
            <mxPoint x="500" y="460" as="targetPoint" />
          </mxGeometry>
        </mxCell>
        <mxCell id="1HETc7zzV47s04hjz0ba-24" value="currentFloor = firstFloor" style="edgeLabel;html=1;align=center;verticalAlign=middle;resizable=0;points=[];fontColor=#FF3333;" vertex="1" connectable="0" parent="1HETc7zzV47s04hjz0ba-4">
          <mxGeometry x="-0.5333" relative="1" as="geometry">
            <mxPoint y="6" as="offset" />
          </mxGeometry>
        </mxCell>
        <mxCell id="1HETc7zzV47s04hjz0ba-10" value="" style="ellipse;html=1;shape=startState;rounded=1;shadow=0;comic=0;labelBackgroundColor=none;fontFamily=Verdana;fontSize=12;fontColor=#000000;align=center;direction=south;fillColor=#FFFFFF;strokeWidth=4;" vertex="1" parent="1">
          <mxGeometry x="375" y="570" width="30" height="30" as="geometry" />
        </mxCell>
        <mxCell id="1HETc7zzV47s04hjz0ba-11" value="" style="endArrow=classic;html=1;strokeColor=#000000;exitX=0.25;exitY=1;exitDx=0;exitDy=0;" edge="1" parent="1" source="382b91b5511bd0f7-7" target="1HETc7zzV47s04hjz0ba-10">
          <mxGeometry width="50" height="50" relative="1" as="geometry">
            <mxPoint x="420" y="330" as="sourcePoint" />
            <mxPoint x="470" y="280" as="targetPoint" />
          </mxGeometry>
        </mxCell>
        <mxCell id="1HETc7zzV47s04hjz0ba-17" value="SHUTDOWN" style="edgeLabel;html=1;align=center;verticalAlign=middle;resizable=0;points=[];fontColor=#FF3333;" vertex="1" connectable="0" parent="1HETc7zzV47s04hjz0ba-11">
          <mxGeometry x="0.6444" relative="1" as="geometry">
            <mxPoint as="offset" />
          </mxGeometry>
        </mxCell>
        <mxCell id="1HETc7zzV47s04hjz0ba-13" value="" style="endArrow=classic;html=1;strokeColor=#000000;exitX=0.5;exitY=1;exitDx=0;exitDy=0;entryX=0.5;entryY=0;entryDx=0;entryDy=0;" edge="1" parent="1" source="382b91b5511bd0f7-10" target="382b91b5511bd0f7-9">
          <mxGeometry width="50" height="50" relative="1" as="geometry">
            <mxPoint x="640" y="390" as="sourcePoint" />
            <mxPoint x="690" y="340" as="targetPoint" />
          </mxGeometry>
        </mxCell>
        <mxCell id="1HETc7zzV47s04hjz0ba-25" value="&lt;font color=&quot;#ff3333&quot;&gt;emergencyButtonPressed&lt;/font&gt;" style="edgeLabel;html=1;align=center;verticalAlign=middle;resizable=0;points=[];" vertex="1" connectable="0" parent="1HETc7zzV47s04hjz0ba-13">
          <mxGeometry x="-0.4909" y="1" relative="1" as="geometry">
            <mxPoint as="offset" />
          </mxGeometry>
        </mxCell>
        <mxCell id="1HETc7zzV47s04hjz0ba-14" value="" style="endArrow=classic;html=1;strokeColor=#000000;exitX=0.5;exitY=1;exitDx=0;exitDy=0;entryX=0;entryY=0.75;entryDx=0;entryDy=0;" edge="1" parent="1" source="382b91b5511bd0f7-5" target="382b91b5511bd0f7-9">
          <mxGeometry width="50" height="50" relative="1" as="geometry">
            <mxPoint x="230" y="370" as="sourcePoint" />
            <mxPoint x="590" y="450" as="targetPoint" />
            <Array as="points">
              <mxPoint x="210" y="465" />
            </Array>
          </mxGeometry>
        </mxCell>
        <mxCell id="1HETc7zzV47s04hjz0ba-26" value="emergencyButtonPressed" style="edgeLabel;html=1;align=center;verticalAlign=middle;resizable=0;points=[];fontColor=#FF3333;" vertex="1" connectable="0" parent="1HETc7zzV47s04hjz0ba-14">
          <mxGeometry x="-0.6437" y="-1" relative="1" as="geometry">
            <mxPoint x="1" y="-48" as="offset" />
          </mxGeometry>
        </mxCell>
        <mxCell id="1HETc7zzV47s04hjz0ba-16" value="elevatorError" style="rounded=1;whiteSpace=wrap;html=1;arcSize=24;shadow=0;comic=0;labelBackgroundColor=none;fontFamily=Verdana;fontSize=12;fontColor=#000000;align=center;fillColor=#FFFFFF;" vertex="1" parent="1">
          <mxGeometry x="510" y="120" width="120" height="60" as="geometry" />
        </mxCell>
        <mxCell id="1HETc7zzV47s04hjz0ba-19" value="" style="endArrow=classic;html=1;strokeColor=#000000;exitX=0;exitY=0.25;exitDx=0;exitDy=0;entryX=0.5;entryY=0;entryDx=0;entryDy=0;" edge="1" parent="1" source="382b91b5511bd0f7-7" target="382b91b5511bd0f7-5">
          <mxGeometry width="50" height="50" relative="1" as="geometry">
            <mxPoint x="260" y="280" as="sourcePoint" />
            <mxPoint x="310" y="230" as="targetPoint" />
            <Array as="points">
              <mxPoint x="210" y="255" />
            </Array>
          </mxGeometry>
        </mxCell>
        <mxCell id="1HETc7zzV47s04hjz0ba-21" value="targetFloor &amp;gt; currentFloor" style="edgeLabel;html=1;align=center;verticalAlign=middle;resizable=0;points=[];fontColor=#FF3333;" vertex="1" connectable="0" parent="1HETc7zzV47s04hjz0ba-19">
          <mxGeometry x="-0.0182" y="1" relative="1" as="geometry">
            <mxPoint x="-26" y="-21" as="offset" />
          </mxGeometry>
        </mxCell>
        <mxCell id="1HETc7zzV47s04hjz0ba-22" value="" style="endArrow=classic;html=1;strokeColor=#000000;exitX=1;exitY=0.25;exitDx=0;exitDy=0;entryX=0.5;entryY=0;entryDx=0;entryDy=0;" edge="1" parent="1" source="382b91b5511bd0f7-7" target="382b91b5511bd0f7-10">
          <mxGeometry width="50" height="50" relative="1" as="geometry">
            <mxPoint x="520" y="280" as="sourcePoint" />
            <mxPoint x="570" y="230" as="targetPoint" />
            <Array as="points">
              <mxPoint x="650" y="255" />
            </Array>
          </mxGeometry>
        </mxCell>
        <mxCell id="1HETc7zzV47s04hjz0ba-23" value="&lt;font color=&quot;#ff3333&quot;&gt;targetFloor &amp;lt; currentFloor&lt;/font&gt;" style="edgeLabel;html=1;align=center;verticalAlign=middle;resizable=0;points=[];" vertex="1" connectable="0" parent="1HETc7zzV47s04hjz0ba-22">
          <mxGeometry x="-0.0154" y="1" relative="1" as="geometry">
            <mxPoint x="6" y="-19" as="offset" />
          </mxGeometry>
        </mxCell>
        <mxCell id="1HETc7zzV47s04hjz0ba-27" value="" style="endArrow=classic;html=1;strokeColor=#000000;fontColor=#FF3333;exitX=1;exitY=0.5;exitDx=0;exitDy=0;entryX=0;entryY=0.75;entryDx=0;entryDy=0;" edge="1" parent="1" source="382b91b5511bd0f7-5" target="382b91b5511bd0f7-7">
          <mxGeometry width="50" height="50" relative="1" as="geometry">
            <mxPoint x="480" y="380" as="sourcePoint" />
            <mxPoint x="530" y="330" as="targetPoint" />
            <Array as="points">
              <mxPoint x="310" y="340" />
              <mxPoint x="310" y="285" />
            </Array>
          </mxGeometry>
        </mxCell>
        <mxCell id="1HETc7zzV47s04hjz0ba-28" value="targetFloor = currentFloor" style="edgeLabel;html=1;align=center;verticalAlign=middle;resizable=0;points=[];fontColor=#FF3333;" vertex="1" connectable="0" parent="1HETc7zzV47s04hjz0ba-27">
          <mxGeometry x="-0.0619" y="-3" relative="1" as="geometry">
            <mxPoint x="-33" y="-32" as="offset" />
          </mxGeometry>
        </mxCell>
        <mxCell id="1HETc7zzV47s04hjz0ba-29" value="" style="endArrow=classic;html=1;strokeColor=#000000;fontColor=#FF3333;exitX=0.5;exitY=1;exitDx=0;exitDy=0;entryX=0;entryY=0.5;entryDx=0;entryDy=0;" edge="1" parent="1" source="382b91b5511bd0f7-7" target="382b91b5511bd0f7-9">
          <mxGeometry width="50" height="50" relative="1" as="geometry">
            <mxPoint x="480" y="380" as="sourcePoint" />
            <mxPoint x="530" y="330" as="targetPoint" />
            <Array as="points">
              <mxPoint x="420" y="450" />
            </Array>
          </mxGeometry>
        </mxCell>
        <mxCell id="1HETc7zzV47s04hjz0ba-30" value="emergencyButtonPressed" style="edgeLabel;html=1;align=center;verticalAlign=middle;resizable=0;points=[];fontColor=#FF3333;" vertex="1" connectable="0" parent="1HETc7zzV47s04hjz0ba-29">
          <mxGeometry x="0.1094" y="1" relative="1" as="geometry">
            <mxPoint x="54.68" y="1" as="offset" />
          </mxGeometry>
        </mxCell>
        <mxCell id="1HETc7zzV47s04hjz0ba-31" value="" style="endArrow=classic;html=1;strokeColor=#000000;fontColor=#FF3333;exitX=0;exitY=0.25;exitDx=0;exitDy=0;entryX=0.75;entryY=1;entryDx=0;entryDy=0;" edge="1" parent="1" source="382b91b5511bd0f7-9" target="382b91b5511bd0f7-7">
          <mxGeometry width="50" height="50" relative="1" as="geometry">
            <mxPoint x="480" y="330" as="sourcePoint" />
            <mxPoint x="530" y="280" as="targetPoint" />
            <Array as="points">
              <mxPoint x="510" y="435" />
              <mxPoint x="510" y="370" />
              <mxPoint x="450" y="370" />
            </Array>
          </mxGeometry>
        </mxCell>
        <mxCell id="1HETc7zzV47s04hjz0ba-32" value="emergencyButtonReleased" style="edgeLabel;html=1;align=center;verticalAlign=middle;resizable=0;points=[];fontColor=#FF3333;" vertex="1" connectable="0" parent="1HETc7zzV47s04hjz0ba-31">
          <mxGeometry x="-0.7067" y="1" relative="1" as="geometry">
            <mxPoint x="-40" y="-36" as="offset" />
          </mxGeometry>
        </mxCell>
        <mxCell id="1HETc7zzV47s04hjz0ba-33" value="" style="endArrow=classic;html=1;strokeColor=#000000;fontColor=#FF3333;entryX=1;entryY=0.75;entryDx=0;entryDy=0;exitX=0;exitY=0.5;exitDx=0;exitDy=0;" edge="1" parent="1" source="382b91b5511bd0f7-10" target="382b91b5511bd0f7-7">
          <mxGeometry width="50" height="50" relative="1" as="geometry">
            <mxPoint x="500" y="340" as="sourcePoint" />
            <mxPoint x="550" y="290" as="targetPoint" />
            <Array as="points">
              <mxPoint x="540" y="340" />
              <mxPoint x="540" y="285" />
            </Array>
          </mxGeometry>
        </mxCell>
        <mxCell id="1HETc7zzV47s04hjz0ba-34" value="targetFloor = currentFloor" style="edgeLabel;html=1;align=center;verticalAlign=middle;resizable=0;points=[];fontColor=#FF3333;" vertex="1" connectable="0" parent="1HETc7zzV47s04hjz0ba-33">
          <mxGeometry x="-0.2202" relative="1" as="geometry">
            <mxPoint x="20" y="-46" as="offset" />
          </mxGeometry>
        </mxCell>
      </root>
    </mxGraphModel>
  </diagram>
</mxfile>
